<svg xmlns="http://www.w3.org/2000/svg" xmlns:xlink="http://www.w3.org/1999/xlink" width="900" zoomAndPan="magnify" viewBox="0 0 675 112.499997" height="150" preserveAspectRatio="xMidYMid meet" version="1.0"><defs><g/></defs><g fill="#000000" fill-opacity="1"><g transform="translate(12.693593, 85.638461)"><g><path d="M 43.628906 -53.164062 L 2.476562 -53.164062 L 2.476562 -41.148438 L 16.671875 -41.148438 L 16.671875 0 L 29.511719 0 L 29.511719 -41.148438 L 43.628906 -41.148438 Z M 43.628906 -53.164062 "/></g></g></g><g fill="#000000" fill-opacity="1"><g transform="translate(59.77512, 85.638461)"><g><path d="M 44.753906 0 L 44.753906 -52.5625 L 31.914062 -52.5625 L 31.914062 -32.738281 L 16.59375 -32.738281 L 16.59375 -52.5625 L 3.753906 -52.5625 L 3.753906 0 L 16.59375 0 L 16.59375 -20.347656 L 31.914062 -20.347656 L 31.914062 0 Z M 44.753906 0 "/></g></g></g><g fill="#000000" fill-opacity="1"><g transform="translate(109.034257, 85.638461)"><g><path d="M 3.753906 -53.011719 L 3.753906 0 L 38.445312 0 L 38.445312 -12.390625 L 16.671875 -12.390625 L 16.671875 -20.800781 L 37.921875 -20.800781 L 37.921875 -33.265625 L 16.671875 -33.265625 L 16.671875 -40.625 L 38.371094 -40.625 L 38.371094 -53.011719 Z M 3.753906 -53.011719 "/></g></g></g><g fill="#000000" fill-opacity="1"><g transform="translate(150.934553, 85.638461)"><g/></g></g><g fill="#9cff1e" fill-opacity="1"><g transform="translate(169.79941, 85.638461)"><g><path d="M 45.277344 -3.152344 L 48.582031 0 L 59.847656 0 L 59.847656 -5.707031 L 53.390625 -11.863281 C 56.09375 -15.996094 57.746094 -20.949219 57.746094 -26.28125 C 57.746094 -33.566406 54.664062 -40.324219 49.859375 -45.203125 C 44.980469 -50.085938 38.296875 -53.164062 30.785156 -53.164062 C 16.59375 -53.164062 3.90625 -42.277344 3.90625 -26.28125 C 3.90625 -10.738281 15.917969 0.527344 30.785156 0.527344 C 35.519531 0.527344 40.773438 -0.75 45.277344 -3.152344 Z M 43.851562 -20.5 L 37.921875 -25.90625 L 24.253906 -25.90625 L 24.253906 -22 L 35.066406 -12.238281 C 33.640625 -11.863281 32.4375 -11.640625 31.011719 -11.640625 C 27.40625 -11.640625 23.726562 -13.214844 20.875 -16.070312 L 20.875 -15.996094 C 18.320312 -18.546875 16.671875 -22.226562 16.671875 -26.28125 C 16.671875 -30.335938 18.320312 -33.941406 20.875 -36.492188 L 20.875 -36.417969 C 23.503906 -39.121094 27.03125 -40.699219 30.785156 -40.699219 C 34.617188 -40.699219 38.144531 -39.121094 40.699219 -36.492188 C 43.175781 -33.941406 44.828125 -30.335938 44.828125 -26.28125 C 44.828125 -24.328125 44.527344 -22.226562 43.851562 -20.5 Z M 43.851562 -20.5 "/></g></g></g><g fill="#9cff1e" fill-opacity="1"><g transform="translate(232.274405, 85.638461)"><g><path d="M 24.179688 0.75 C 34.242188 0.75 44.304688 -5.105469 44.304688 -16.894531 L 44.304688 -52.5625 L 31.460938 -52.5625 L 31.460938 -16.96875 C 31.460938 -13.066406 27.707031 -11.113281 23.953125 -11.113281 C 20.273438 -11.113281 16.59375 -13.066406 16.59375 -16.96875 L 16.59375 -52.5625 L 3.753906 -52.5625 L 3.753906 -16.894531 C 3.753906 -4.957031 13.964844 0.75 24.179688 0.75 Z M 24.179688 0.75 "/></g></g></g><g fill="#9cff1e" fill-opacity="1"><g transform="translate(280.332094, 85.638461)"><g><path d="M 3.828125 -26.207031 C 3.828125 -10.738281 15.996094 0.75 31.011719 0.75 C 46.03125 0.75 58.269531 -10.964844 58.269531 -26.207031 C 58.269531 -41.675781 46.03125 -53.390625 31.011719 -53.390625 C 15.996094 -53.390625 3.828125 -41.675781 3.828125 -26.207031 Z M 16.59375 -26.207031 C 16.59375 -36.195312 23.804688 -41.074219 31.011719 -41.074219 C 38.222656 -41.074219 45.355469 -36.117188 45.355469 -26.207031 C 45.355469 -16.371094 38.070312 -11.414062 30.863281 -11.414062 C 23.652344 -11.414062 16.59375 -16.292969 16.59375 -26.207031 Z M 16.59375 -26.207031 "/></g></g></g><g fill="#9cff1e" fill-opacity="1"><g transform="translate(342.431629, 85.638461)"><g><path d="M 43.628906 -53.164062 L 2.476562 -53.164062 L 2.476562 -41.148438 L 16.671875 -41.148438 L 16.671875 0 L 29.511719 0 L 29.511719 -41.148438 L 43.628906 -41.148438 Z M 43.628906 -53.164062 "/></g></g></g><g fill="#9cff1e" fill-opacity="1"><g transform="translate(389.513155, 85.638461)"><g><path d="M 3.753906 -53.011719 L 3.753906 0 L 38.445312 0 L 38.445312 -12.390625 L 16.671875 -12.390625 L 16.671875 -20.800781 L 37.921875 -20.800781 L 37.921875 -33.265625 L 16.671875 -33.265625 L 16.671875 -40.625 L 38.371094 -40.625 L 38.371094 -53.011719 Z M 3.753906 -53.011719 "/></g></g></g><g fill="#9cff1e" fill-opacity="1"><g transform="translate(431.413452, 85.638461)"><g/></g></g><g fill="#000000" fill-opacity="1"><g transform="translate(450.270664, 85.638461)"><g><path d="M 37.769531 -40.773438 L 37.769531 -53.011719 L 3.753906 -53.011719 L 3.753906 0 L 16.519531 0 L 16.519531 -18.996094 L 36.570312 -18.996094 L 36.570312 -30.9375 L 16.519531 -30.9375 L 16.519531 -40.773438 Z M 37.769531 -40.773438 "/></g></g></g><g fill="#000000" fill-opacity="1"><g transform="translate(491.344973, 85.638461)"><g><path d="M 3.828125 -26.207031 C 3.828125 -10.738281 15.996094 0.75 31.011719 0.75 C 46.03125 0.75 58.269531 -10.964844 58.269531 -26.207031 C 58.269531 -41.675781 46.03125 -53.390625 31.011719 -53.390625 C 15.996094 -53.390625 3.828125 -41.675781 3.828125 -26.207031 Z M 16.59375 -26.207031 C 16.59375 -36.195312 23.804688 -41.074219 31.011719 -41.074219 C 38.222656 -41.074219 45.355469 -36.117188 45.355469 -26.207031 C 45.355469 -16.371094 38.070312 -11.414062 30.863281 -11.414062 C 23.652344 -11.414062 16.59375 -16.292969 16.59375 -26.207031 Z M 16.59375 -26.207031 "/></g></g></g><g fill="#000000" fill-opacity="1"><g transform="translate(553.444508, 85.638461)"><g><path d="M 24.179688 -53.011719 L 3.753906 -53.011719 L 3.753906 0 L 16.519531 0 L 16.519531 -17.796875 L 18.621094 -17.796875 L 29.585938 0 L 43.25 0 L 43.25 -2.402344 L 31.988281 -19.074219 C 38.898438 -22.375 42.277344 -29.136719 42.277344 -35.519531 C 42.277344 -44.226562 36.195312 -53.011719 24.179688 -53.011719 Z M 23.878906 -29.433594 L 16.519531 -29.433594 L 16.519531 -40.699219 L 23.878906 -40.699219 C 27.785156 -40.699219 29.734375 -37.769531 29.734375 -34.992188 C 29.734375 -32.289062 27.707031 -29.433594 23.878906 -29.433594 Z M 23.878906 -29.433594 "/></g></g></g><g fill="#000000" fill-opacity="1"><g transform="translate(599.099323, 85.638461)"><g><path d="M 27.785156 -32.214844 L 13.964844 -52.5625 L 3.753906 -52.5625 L 3.753906 0 L 16.59375 0 L 16.59375 -26.132812 L 24.179688 -14.792969 L 31.3125 -14.792969 L 38.898438 -25.980469 L 38.898438 0 L 51.660156 0 L 51.660156 -52.5625 L 41.601562 -52.5625 Z M 27.785156 -32.214844 "/></g></g></g><g fill="#000000" fill-opacity="1"><g transform="translate(653.820931, 85.295484)"><g><path d="M 7.558594 -9.210938 L 0.429688 -9.210938 L 0.429688 -7.128906 L 2.886719 -7.128906 L 2.886719 0 L 5.113281 0 L 5.113281 -7.128906 L 7.558594 -7.128906 Z M 7.558594 -9.210938 "/></g></g></g><g fill="#000000" fill-opacity="1"><g transform="translate(661.969985, 85.295484)"><g><path d="M 4.8125 -5.582031 L 2.417969 -9.105469 L 0.648438 -9.105469 L 0.648438 0 L 2.875 0 L 2.875 -4.527344 L 4.1875 -2.5625 L 5.425781 -2.5625 L 6.738281 -4.5 L 6.738281 0 L 8.949219 0 L 8.949219 -9.105469 L 7.207031 -9.105469 Z M 4.8125 -5.582031 "/></g></g></g></svg>